<?xml version="1.0" encoding="UTF-8" standalone="no"?>
<!DOCTYPE svg PUBLIC "-//W3C//DTD SVG 1.1//EN"
 "http://www.w3.org/Graphics/SVG/1.1/DTD/svg11.dtd">
<!-- Generated by graphviz version 2.42.4 (0)
 -->
<!-- Title: G Pages: 1 -->
<svg width="788pt" height="327pt"
 viewBox="0.00 0.00 788.00 327.05" xmlns="http://www.w3.org/2000/svg" xmlns:xlink="http://www.w3.org/1999/xlink">
<g id="graph0" class="graph" transform="scale(1 1) rotate(0) translate(4 323.05)">
<title>G</title>
<polygon fill="white" stroke="transparent" points="-4,4 -4,-323.05 784,-323.05 784,4 -4,4"/>
<!-- Frontend -->
<g id="node1" class="node">
<title>Frontend</title>
<path fill="none" stroke="black" d="M59,-173.05C59,-173.05 12,-173.05 12,-173.05 6,-173.05 0,-167.05 0,-161.05 0,-161.05 0,-149.05 0,-149.05 0,-143.05 6,-137.05 12,-137.05 12,-137.05 59,-137.05 59,-137.05 65,-137.05 71,-143.05 71,-149.05 71,-149.05 71,-161.05 71,-161.05 71,-167.05 65,-173.05 59,-173.05"/>
<text text-anchor="middle" x="35.5" y="-151.35" font-family="Arial" font-size="14.00">Frontend</text>
</g>
<!-- APIGateway -->
<g id="node2" class="node">
<title>APIGateway</title>
<path fill="none" stroke="black" d="M227,-173.05C227,-173.05 159,-173.05 159,-173.05 153,-173.05 147,-167.05 147,-161.05 147,-161.05 147,-149.05 147,-149.05 147,-143.05 153,-137.05 159,-137.05 159,-137.05 227,-137.05 227,-137.05 233,-137.05 239,-143.05 239,-149.05 239,-149.05 239,-161.05 239,-161.05 239,-167.05 233,-173.05 227,-173.05"/>
<text text-anchor="middle" x="193" y="-151.35" font-family="Arial" font-size="14.00">APIGateway</text>
</g>
<!-- Frontend&#45;&gt;APIGateway -->
<g id="edge1" class="edge">
<title>Frontend&#45;&gt;APIGateway</title>
<path fill="none" stroke="black" d="M71.01,-155.05C90.32,-155.05 114.85,-155.05 136.77,-155.05"/>
<polygon fill="black" stroke="black" points="136.95,-158.55 146.95,-155.05 136.95,-151.55 136.95,-158.55"/>
<text text-anchor="middle" x="109" y="-158.85" font-family="Times,serif" font-size="14.00">REST</text>
</g>
<!-- PostgreSQL -->
<g id="node3" class="node">
<title>PostgreSQL</title>
<path fill="none" stroke="black" d="M355,-319.05C355,-319.05 288,-319.05 288,-319.05 282,-319.05 276,-313.05 276,-307.05 276,-307.05 276,-295.05 276,-295.05 276,-289.05 282,-283.05 288,-283.05 288,-283.05 355,-283.05 355,-283.05 361,-283.05 367,-289.05 367,-295.05 367,-295.05 367,-307.05 367,-307.05 367,-313.05 361,-319.05 355,-319.05"/>
<text text-anchor="middle" x="321.5" y="-297.35" font-family="Arial" font-size="14.00">PostgreSQL</text>
</g>
<!-- APIGateway&#45;&gt;PostgreSQL -->
<g id="edge2" class="edge">
<title>APIGateway&#45;&gt;PostgreSQL</title>
<path fill="none" stroke="black" d="M200.21,-173.4C209.3,-197.91 228.33,-241.44 257,-269.05 260.1,-272.03 263.54,-274.8 267.16,-277.35"/>
<polygon fill="black" stroke="black" points="265.56,-280.48 275.87,-282.91 269.33,-274.58 265.56,-280.48"/>
</g>
<!-- Redis -->
<g id="node4" class="node">
<title>Redis</title>
<path fill="none" stroke="black" d="M548,-223.05C548,-223.05 518,-223.05 518,-223.05 512,-223.05 506,-217.05 506,-211.05 506,-211.05 506,-199.05 506,-199.05 506,-193.05 512,-187.05 518,-187.05 518,-187.05 548,-187.05 548,-187.05 554,-187.05 560,-193.05 560,-199.05 560,-199.05 560,-211.05 560,-211.05 560,-217.05 554,-223.05 548,-223.05"/>
<text text-anchor="middle" x="533" y="-201.35" font-family="Arial" font-size="14.00">Redis</text>
</g>
<!-- APIGateway&#45;&gt;Redis -->
<g id="edge3" class="edge">
<title>APIGateway&#45;&gt;Redis</title>
<path fill="none" stroke="black" d="M205.89,-173.36C219.92,-193.12 245.27,-223.43 276,-236.05 349.96,-266.42 445.32,-239.32 496.22,-220.16"/>
<polygon fill="black" stroke="black" points="497.73,-223.33 505.79,-216.46 495.2,-216.81 497.73,-223.33"/>
</g>
<!-- Trazabilidad -->
<g id="node5" class="node">
<title>Trazabilidad</title>
<path fill="none" stroke="black" d="M354.5,-227.05C354.5,-227.05 288.5,-227.05 288.5,-227.05 282.5,-227.05 276.5,-221.05 276.5,-215.05 276.5,-215.05 276.5,-203.05 276.5,-203.05 276.5,-197.05 282.5,-191.05 288.5,-191.05 288.5,-191.05 354.5,-191.05 354.5,-191.05 360.5,-191.05 366.5,-197.05 366.5,-203.05 366.5,-203.05 366.5,-215.05 366.5,-215.05 366.5,-221.05 360.5,-227.05 354.5,-227.05"/>
<text text-anchor="middle" x="321.5" y="-205.35" font-family="Arial" font-size="14.00">Trazabilidad</text>
</g>
<!-- APIGateway&#45;&gt;Trazabilidad -->
<g id="edge4" class="edge">
<title>APIGateway&#45;&gt;Trazabilidad</title>
<path fill="none" stroke="black" d="M236.47,-173.18C246.8,-177.59 257.96,-182.35 268.66,-186.92"/>
<polygon fill="black" stroke="black" points="267.35,-190.16 277.92,-190.87 270.1,-183.73 267.35,-190.16"/>
</g>
<!-- RFID -->
<g id="node6" class="node">
<title>RFID</title>
<path fill="none" stroke="black" d="M336.5,-173.05C336.5,-173.05 306.5,-173.05 306.5,-173.05 300.5,-173.05 294.5,-167.05 294.5,-161.05 294.5,-161.05 294.5,-149.05 294.5,-149.05 294.5,-143.05 300.5,-137.05 306.5,-137.05 306.5,-137.05 336.5,-137.05 336.5,-137.05 342.5,-137.05 348.5,-143.05 348.5,-149.05 348.5,-149.05 348.5,-161.05 348.5,-161.05 348.5,-167.05 342.5,-173.05 336.5,-173.05"/>
<text text-anchor="middle" x="321.5" y="-151.35" font-family="Arial" font-size="14.00">RFID</text>
</g>
<!-- APIGateway&#45;&gt;RFID -->
<g id="edge5" class="edge">
<title>APIGateway&#45;&gt;RFID</title>
<path fill="none" stroke="black" d="M239.31,-155.05C254,-155.05 270.1,-155.05 284.05,-155.05"/>
<polygon fill="black" stroke="black" points="284.25,-158.55 294.25,-155.05 284.25,-151.55 284.25,-158.55"/>
</g>
<!-- Camaras -->
<g id="node7" class="node">
<title>Camaras</title>
<path fill="none" stroke="black" d="M345.5,-119.05C345.5,-119.05 297.5,-119.05 297.5,-119.05 291.5,-119.05 285.5,-113.05 285.5,-107.05 285.5,-107.05 285.5,-95.05 285.5,-95.05 285.5,-89.05 291.5,-83.05 297.5,-83.05 297.5,-83.05 345.5,-83.05 345.5,-83.05 351.5,-83.05 357.5,-89.05 357.5,-95.05 357.5,-95.05 357.5,-107.05 357.5,-107.05 357.5,-113.05 351.5,-119.05 345.5,-119.05"/>
<text text-anchor="middle" x="321.5" y="-97.35" font-family="Arial" font-size="14.00">Camaras</text>
</g>
<!-- APIGateway&#45;&gt;Camaras -->
<g id="edge6" class="edge">
<title>APIGateway&#45;&gt;Camaras</title>
<path fill="none" stroke="black" d="M236.47,-136.91C249.06,-131.54 262.88,-125.64 275.61,-120.21"/>
<polygon fill="black" stroke="black" points="277.27,-123.31 285.09,-116.16 274.52,-116.87 277.27,-123.31"/>
</g>
<!-- IA -->
<g id="node8" class="node">
<title>IA</title>
<path fill="none" stroke="black" d="M548,-81.05C548,-81.05 518,-81.05 518,-81.05 512,-81.05 506,-75.05 506,-69.05 506,-69.05 506,-57.05 506,-57.05 506,-51.05 512,-45.05 518,-45.05 518,-45.05 548,-45.05 548,-45.05 554,-45.05 560,-51.05 560,-57.05 560,-57.05 560,-69.05 560,-69.05 560,-75.05 554,-81.05 548,-81.05"/>
<text text-anchor="middle" x="533" y="-59.35" font-family="Arial" font-size="14.00">IA</text>
</g>
<!-- APIGateway&#45;&gt;IA -->
<g id="edge7" class="edge">
<title>APIGateway&#45;&gt;IA</title>
<path fill="none" stroke="black" d="M206,-136.99C220.12,-117.47 245.57,-87.36 276,-74.05 348.82,-42.17 444.71,-49.44 495.98,-56.73"/>
<polygon fill="black" stroke="black" points="495.51,-60.2 505.92,-58.22 496.56,-53.28 495.51,-60.2"/>
</g>
<!-- Alertas -->
<g id="node9" class="node">
<title>Alertas</title>
<path fill="none" stroke="black" d="M768,-51.05C768,-51.05 733,-51.05 733,-51.05 727,-51.05 721,-45.05 721,-39.05 721,-39.05 721,-27.05 721,-27.05 721,-21.05 727,-15.05 733,-15.05 733,-15.05 768,-15.05 768,-15.05 774,-15.05 780,-21.05 780,-27.05 780,-27.05 780,-39.05 780,-39.05 780,-45.05 774,-51.05 768,-51.05"/>
<text text-anchor="middle" x="750.5" y="-29.35" font-family="Arial" font-size="14.00">Alertas</text>
</g>
<!-- APIGateway&#45;&gt;Alertas -->
<g id="edge8" class="edge">
<title>APIGateway&#45;&gt;Alertas</title>
<path fill="none" stroke="black" d="M201.93,-136.7C213.89,-111.6 239.14,-67.45 276,-48.05 420.8,28.17 626.51,-5.02 711.01,-23.59"/>
<polygon fill="black" stroke="black" points="710.41,-27.05 720.94,-25.83 711.95,-20.22 710.41,-27.05"/>
</g>
<!-- RFID&#45;&gt;Redis -->
<g id="edge9" class="edge">
<title>RFID&#45;&gt;Redis</title>
<path fill="none" stroke="black" d="M348.61,-161.28C385.8,-170.15 454.15,-186.47 496.09,-196.48"/>
<polygon fill="black" stroke="black" points="495.35,-199.9 505.89,-198.81 496.98,-193.09 495.35,-199.9"/>
<text text-anchor="middle" x="436.5" y="-197.85" font-family="Times,serif" font-size="14.00">eventos fase 0</text>
</g>
<!-- Camaras&#45;&gt;IA -->
<g id="edge10" class="edge">
<title>Camaras&#45;&gt;IA</title>
<path fill="none" stroke="black" d="M357.57,-94.69C395.79,-87.75 456.67,-76.71 495.46,-69.67"/>
<polygon fill="black" stroke="black" points="496.57,-73.03 505.78,-67.8 495.32,-66.14 496.57,-73.03"/>
<text text-anchor="middle" x="436.5" y="-91.85" font-family="Times,serif" font-size="14.00">frames</text>
</g>
<!-- IA&#45;&gt;Alertas -->
<g id="edge11" class="edge">
<title>IA&#45;&gt;Alertas</title>
<path fill="none" stroke="black" d="M560.42,-59.37C598.09,-54.12 667.46,-44.47 710.88,-38.42"/>
<polygon fill="black" stroke="black" points="711.38,-41.89 720.8,-37.04 710.41,-34.95 711.38,-41.89"/>
<text text-anchor="middle" x="640.5" y="-59.85" font-family="Times,serif" font-size="14.00">weight.estimated</text>
</g>
</g>
</svg>
