<?xml version="1.0" encoding="UTF-8" standalone="no"?>
<!DOCTYPE svg PUBLIC "-//W3C//DTD SVG 1.1//EN"
 "http://www.w3.org/Graphics/SVG/1.1/DTD/svg11.dtd">
<!-- Generated by graphviz version 2.42.4 (0)
 -->
<!-- Title: ERD Pages: 1 -->
<svg width="1364pt" height="457pt"
 viewBox="0.00 0.00 1364.00 457.00" xmlns="http://www.w3.org/2000/svg" xmlns:xlink="http://www.w3.org/1999/xlink">
<g id="graph0" class="graph" transform="scale(1 1) rotate(0) translate(4 453)">
<title>ERD</title>
<polygon fill="white" stroke="transparent" points="-4,4 -4,-453 1360,-453 1360,4 -4,4"/>
<!-- empresas -->
<g id="node1" class="node">
<title>empresas</title>
<polygon fill="none" stroke="black" points="23,-247 23,-288 131,-288 131,-247 23,-247"/>
<text text-anchor="middle" x="52.5" y="-265" font-family="Arial" font-size="10.00">empresas</text>
<polyline fill="none" stroke="black" points="82,-247 82,-288 "/>
<text text-anchor="start" x="90" y="-276" font-family="Arial" font-size="10.00">PK id</text>
<text text-anchor="start" x="90" y="-265" font-family="Arial" font-size="10.00">nombre</text>
<text text-anchor="start" x="90" y="-254" font-family="Arial" font-size="10.00">cuit</text>
</g>
<!-- usuarios -->
<g id="node2" class="node">
<title>usuarios</title>
<polygon fill="none" stroke="black" points="267.5,-187.5 267.5,-239.5 403.5,-239.5 403.5,-187.5 267.5,-187.5"/>
<text text-anchor="middle" x="294" y="-211" font-family="Arial" font-size="10.00">usuarios</text>
<polyline fill="none" stroke="black" points="320.5,-187.5 320.5,-239.5 "/>
<text text-anchor="start" x="328.5" y="-227.5" font-family="Arial" font-size="10.00">PK id</text>
<text text-anchor="start" x="328.5" y="-216.5" font-family="Arial" font-size="10.00">FK empresa_id</text>
<text text-anchor="start" x="328.5" y="-205.5" font-family="Arial" font-size="10.00">nombre</text>
<text text-anchor="start" x="328.5" y="-194.5" font-family="Arial" font-size="10.00">email UNIQUE</text>
</g>
<!-- empresas&#45;&gt;usuarios -->
<g id="edge2" class="edge">
<title>empresas&#45;&gt;usuarios</title>
<path fill="none" stroke="black" d="M131.29,-255C207.24,-255 336,-255 336,-255 336,-255 336,-247.55 336,-247.55"/>
<polygon fill="black" stroke="black" points="338.8,-247.55 336,-239.55 333.2,-247.55 338.8,-247.55"/>
<text text-anchor="middle" x="201.5" y="-238.3" font-family="Arial" font-size="9.00">1:N</text>
</g>
<!-- establecimientos -->
<g id="node7" class="node">
<title>establecimientos</title>
<polygon fill="none" stroke="black" points="249,-291 249,-354 422,-354 422,-291 249,-291"/>
<text text-anchor="middle" x="294" y="-320" font-family="Arial" font-size="10.00">establecimientos</text>
<polyline fill="none" stroke="black" points="339,-291 339,-354 "/>
<text text-anchor="start" x="347" y="-342" font-family="Arial" font-size="10.00">PK id</text>
<text text-anchor="start" x="347" y="-331" font-family="Arial" font-size="10.00">FK empresa_id</text>
<text text-anchor="start" x="347" y="-320" font-family="Arial" font-size="10.00">nombre</text>
<text text-anchor="start" x="347" y="-309" font-family="Arial" font-size="10.00">latitud</text>
<text text-anchor="start" x="347" y="-298" font-family="Arial" font-size="10.00">longitud</text>
</g>
<!-- empresas&#45;&gt;establecimientos -->
<g id="edge1" class="edge">
<title>empresas&#45;&gt;establecimientos</title>
<path fill="none" stroke="black" d="M131.01,-276C184.03,-276 257,-276 257,-276 257,-276 257,-282.97 257,-282.97"/>
<polygon fill="black" stroke="black" points="254.2,-282.97 257,-290.97 259.8,-282.97 254.2,-282.97"/>
<text text-anchor="middle" x="201.5" y="-314.3" font-family="Arial" font-size="9.00">1:N</text>
</g>
<!-- usuario_rol -->
<g id="node5" class="node">
<title>usuario_rol</title>
<polygon fill="none" stroke="black" points="520.5,-151.5 520.5,-187.5 677.5,-187.5 677.5,-151.5 520.5,-151.5"/>
<text text-anchor="middle" x="552.5" y="-167" font-family="Arial" font-size="10.00">usuario_rol</text>
<polyline fill="none" stroke="black" points="584.5,-151.5 584.5,-187.5 "/>
<text text-anchor="start" x="592.5" y="-172.5" font-family="Arial" font-size="10.00">PK/FK usuario_id</text>
<text text-anchor="start" x="592.5" y="-161.5" font-family="Arial" font-size="10.00">PK/FK rol_id</text>
</g>
<!-- usuarios&#45;&gt;usuario_rol -->
<g id="edge3" class="edge">
<title>usuarios&#45;&gt;usuario_rol</title>
<path fill="none" stroke="black" d="M358,-187.18C358,-180.41 358,-175 358,-175 358,-175 512.42,-175 512.42,-175"/>
<polygon fill="black" stroke="black" points="512.42,-177.8 520.42,-175 512.42,-172.2 512.42,-177.8"/>
<text text-anchor="middle" x="469.5" y="-216.3" font-family="Arial" font-size="9.00">1:N</text>
</g>
<!-- roles -->
<g id="node3" class="node">
<title>roles</title>
<polygon fill="none" stroke="black" points="270.5,-94.5 270.5,-130.5 400.5,-130.5 400.5,-94.5 270.5,-94.5"/>
<text text-anchor="middle" x="289.5" y="-110" font-family="Arial" font-size="10.00">roles</text>
<polyline fill="none" stroke="black" points="308.5,-94.5 308.5,-130.5 "/>
<text text-anchor="start" x="316.5" y="-115.5" font-family="Arial" font-size="10.00">PK id</text>
<text text-anchor="start" x="316.5" y="-104.5" font-family="Arial" font-size="10.00">nombre UNIQUE</text>
</g>
<!-- roles&#45;&gt;usuario_rol -->
<g id="edge4" class="edge">
<title>roles&#45;&gt;usuario_rol</title>
<path fill="none" stroke="black" d="M314,-130.73C314,-145.2 314,-163 314,-163 314,-163 512.37,-163 512.37,-163"/>
<polygon fill="black" stroke="black" points="512.37,-165.8 520.37,-163 512.37,-160.2 512.37,-165.8"/>
<text text-anchor="middle" x="469.5" y="-151.3" font-family="Arial" font-size="9.00">1:N</text>
</g>
<!-- rol_permiso -->
<g id="node6" class="node">
<title>rol_permiso</title>
<polygon fill="none" stroke="black" points="517.5,-43.5 517.5,-79.5 680.5,-79.5 680.5,-43.5 517.5,-43.5"/>
<text text-anchor="middle" x="551" y="-59" font-family="Arial" font-size="10.00">rol_permiso</text>
<polyline fill="none" stroke="black" points="584.5,-43.5 584.5,-79.5 "/>
<text text-anchor="start" x="592.5" y="-64.5" font-family="Arial" font-size="10.00">PK/FK rol_id</text>
<text text-anchor="start" x="592.5" y="-53.5" font-family="Arial" font-size="10.00">PK/FK permiso_id</text>
</g>
<!-- roles&#45;&gt;rol_permiso -->
<g id="edge5" class="edge">
<title>roles&#45;&gt;rol_permiso</title>
<path fill="none" stroke="black" d="M314,-94.26C314,-81.85 314,-67.67 314,-67.67 314,-67.67 509.33,-67.67 509.33,-67.67"/>
<polygon fill="black" stroke="black" points="509.33,-70.47 517.33,-67.67 509.33,-64.87 509.33,-70.47"/>
<text text-anchor="middle" x="469.5" y="-86.3" font-family="Arial" font-size="9.00">1:N</text>
</g>
<!-- permisos -->
<g id="node4" class="node">
<title>permisos</title>
<polygon fill="none" stroke="black" points="263.5,-0.5 263.5,-36.5 407.5,-36.5 407.5,-0.5 263.5,-0.5"/>
<text text-anchor="middle" x="291.5" y="-16" font-family="Arial" font-size="10.00">permisos</text>
<polyline fill="none" stroke="black" points="319.5,-0.5 319.5,-36.5 "/>
<text text-anchor="start" x="327.5" y="-21.5" font-family="Arial" font-size="10.00">PK id</text>
<text text-anchor="start" x="327.5" y="-10.5" font-family="Arial" font-size="10.00">codigo UNIQUE</text>
</g>
<!-- permisos&#45;&gt;rol_permiso -->
<g id="edge6" class="edge">
<title>permisos&#45;&gt;rol_permiso</title>
<path fill="none" stroke="black" d="M358,-36.92C358,-46.12 358,-55.33 358,-55.33 358,-55.33 509.41,-55.33 509.41,-55.33"/>
<polygon fill="black" stroke="black" points="509.41,-58.13 517.41,-55.33 509.41,-52.53 509.41,-58.13"/>
<text text-anchor="middle" x="469.5" y="-21.3" font-family="Arial" font-size="9.00">1:N</text>
</g>
<!-- corrales -->
<g id="node8" class="node">
<title>corrales</title>
<polygon fill="none" stroke="black" points="517,-296.5 517,-348.5 681,-348.5 681,-296.5 517,-296.5"/>
<text text-anchor="middle" x="542.5" y="-320" font-family="Arial" font-size="10.00">corrales</text>
<polyline fill="none" stroke="black" points="568,-296.5 568,-348.5 "/>
<text text-anchor="start" x="576" y="-336.5" font-family="Arial" font-size="10.00">PK id</text>
<text text-anchor="start" x="576" y="-325.5" font-family="Arial" font-size="10.00">FK establecimiento_id</text>
<text text-anchor="start" x="576" y="-314.5" font-family="Arial" font-size="10.00">codigo</text>
<text text-anchor="start" x="576" y="-303.5" font-family="Arial" font-size="10.00">capacidad</text>
</g>
<!-- establecimientos&#45;&gt;corrales -->
<g id="edge7" class="edge">
<title>establecimientos&#45;&gt;corrales</title>
<path fill="none" stroke="black" d="M422.14,-322.5C422.14,-322.5 508.78,-322.5 508.78,-322.5"/>
<polygon fill="black" stroke="black" points="508.78,-325.3 516.78,-322.5 508.78,-319.7 508.78,-325.3"/>
<text text-anchor="middle" x="469.5" y="-325.3" font-family="Arial" font-size="9.00">1:N</text>
</g>
<!-- lotes -->
<g id="node9" class="node">
<title>lotes</title>
<polygon fill="none" stroke="black" points="776,-355.5 776,-407.5 883,-407.5 883,-355.5 776,-355.5"/>
<text text-anchor="middle" x="795" y="-379" font-family="Arial" font-size="10.00">lotes</text>
<polyline fill="none" stroke="black" points="814,-355.5 814,-407.5 "/>
<text text-anchor="start" x="822" y="-395.5" font-family="Arial" font-size="10.00">PK id</text>
<text text-anchor="start" x="822" y="-384.5" font-family="Arial" font-size="10.00">FK corral_id</text>
<text text-anchor="start" x="822" y="-373.5" font-family="Arial" font-size="10.00">nombre</text>
<text text-anchor="start" x="822" y="-362.5" font-family="Arial" font-size="10.00">categoria</text>
</g>
<!-- corrales&#45;&gt;lotes -->
<g id="edge8" class="edge">
<title>corrales&#45;&gt;lotes</title>
<path fill="none" stroke="black" d="M681.09,-338.25C747.49,-338.25 830,-338.25 830,-338.25 830,-338.25 830,-347.34 830,-347.34"/>
<polygon fill="black" stroke="black" points="827.2,-347.34 830,-355.34 832.8,-347.34 827.2,-347.34"/>
<text text-anchor="middle" x="728.5" y="-371.3" font-family="Arial" font-size="9.00">1:N</text>
</g>
<!-- alertas -->
<g id="node12" class="node">
<title>alertas</title>
<polygon fill="none" stroke="black" points="1229.5,-264 1229.5,-327 1349.5,-327 1349.5,-264 1229.5,-264"/>
<text text-anchor="middle" x="1252.5" y="-293" font-family="Arial" font-size="10.00">alertas</text>
<polyline fill="none" stroke="black" points="1275.5,-264 1275.5,-327 "/>
<text text-anchor="start" x="1283.5" y="-315" font-family="Arial" font-size="10.00">PK id</text>
<text text-anchor="start" x="1283.5" y="-304" font-family="Arial" font-size="10.00">FK animal_id</text>
<text text-anchor="start" x="1283.5" y="-293" font-family="Arial" font-size="10.00">FK corral_id</text>
<text text-anchor="start" x="1283.5" y="-282" font-family="Arial" font-size="10.00">tipo</text>
<text text-anchor="start" x="1283.5" y="-271" font-family="Arial" font-size="10.00">severidad</text>
</g>
<!-- corrales&#45;&gt;alertas -->
<g id="edge12" class="edge">
<title>corrales&#45;&gt;alertas</title>
<path fill="none" stroke="black" d="M681.26,-311.75C681.26,-311.75 1221.45,-311.75 1221.45,-311.75"/>
<polygon fill="black" stroke="black" points="1221.45,-314.55 1229.45,-311.75 1221.45,-308.95 1221.45,-314.55"/>
<text text-anchor="middle" x="930.5" y="-279.3" font-family="Arial" font-size="9.00">1:N</text>
</g>
<!-- animales -->
<g id="node10" class="node">
<title>animales</title>
<polygon fill="none" stroke="black" points="978,-353 978,-416 1128,-416 1128,-353 978,-353"/>
<text text-anchor="middle" x="1006" y="-382" font-family="Arial" font-size="10.00">animales</text>
<polyline fill="none" stroke="black" points="1034,-353 1034,-416 "/>
<text text-anchor="start" x="1042" y="-404" font-family="Arial" font-size="10.00">PK id</text>
<text text-anchor="start" x="1042" y="-393" font-family="Arial" font-size="10.00">FK lote_id</text>
<text text-anchor="start" x="1042" y="-382" font-family="Arial" font-size="10.00">rfid UNIQUE</text>
<text text-anchor="start" x="1042" y="-371" font-family="Arial" font-size="10.00">numero_caravana</text>
<text text-anchor="start" x="1042" y="-360" font-family="Arial" font-size="10.00">estado</text>
</g>
<!-- lotes&#45;&gt;animales -->
<g id="edge9" class="edge">
<title>lotes&#45;&gt;animales</title>
<path fill="none" stroke="black" d="M883.03,-381.5C883.03,-381.5 969.93,-381.5 969.93,-381.5"/>
<polygon fill="black" stroke="black" points="969.93,-384.3 977.93,-381.5 969.93,-378.7 969.93,-384.3"/>
<text text-anchor="middle" x="930.5" y="-385.3" font-family="Arial" font-size="9.00">1:N</text>
</g>
<!-- pesajes -->
<g id="node11" class="node">
<title>pesajes</title>
<polygon fill="none" stroke="black" points="1223,-396.5 1223,-448.5 1356,-448.5 1356,-396.5 1223,-396.5"/>
<text text-anchor="middle" x="1248" y="-420" font-family="Arial" font-size="10.00">pesajes</text>
<polyline fill="none" stroke="black" points="1273,-396.5 1273,-448.5 "/>
<text text-anchor="start" x="1281" y="-436.5" font-family="Arial" font-size="10.00">PK id</text>
<text text-anchor="start" x="1281" y="-425.5" font-family="Arial" font-size="10.00">FK animal_id</text>
<text text-anchor="start" x="1281" y="-414.5" font-family="Arial" font-size="10.00">peso_estimado</text>
<text text-anchor="start" x="1281" y="-403.5" font-family="Arial" font-size="10.00">metodo</text>
</g>
<!-- animales&#45;&gt;pesajes -->
<g id="edge10" class="edge">
<title>animales&#45;&gt;pesajes</title>
<path fill="none" stroke="black" d="M1128.16,-406.25C1128.16,-406.25 1214.93,-406.25 1214.93,-406.25"/>
<polygon fill="black" stroke="black" points="1214.93,-409.05 1222.93,-406.25 1214.93,-403.45 1214.93,-409.05"/>
<text text-anchor="middle" x="1175.5" y="-425.3" font-family="Arial" font-size="9.00">1:N</text>
</g>
<!-- animales&#45;&gt;alertas -->
<g id="edge11" class="edge">
<title>animales&#45;&gt;alertas</title>
<path fill="none" stroke="black" d="M1128.31,-374.25C1197.71,-374.25 1290,-374.25 1290,-374.25 1290,-374.25 1290,-335.08 1290,-335.08"/>
<polygon fill="black" stroke="black" points="1292.8,-335.08 1290,-327.08 1287.2,-335.08 1292.8,-335.08"/>
<text text-anchor="middle" x="1175.5" y="-360.3" font-family="Arial" font-size="9.00">1:N</text>
</g>
<!-- auditoria_logs -->
<g id="node13" class="node">
<title>auditoria_logs</title>
<polygon fill="none" stroke="black" points="0,-339 0,-402 154,-402 154,-339 0,-339"/>
<text text-anchor="middle" x="38.5" y="-368" font-family="Arial" font-size="10.00">auditoria_logs</text>
<polyline fill="none" stroke="black" points="77,-339 77,-402 "/>
<text text-anchor="start" x="85" y="-390" font-family="Arial" font-size="10.00">PK id</text>
<text text-anchor="start" x="85" y="-379" font-family="Arial" font-size="10.00">usuario_id</text>
<text text-anchor="start" x="85" y="-368" font-family="Arial" font-size="10.00">accion</text>
<text text-anchor="start" x="85" y="-357" font-family="Arial" font-size="10.00">entidad</text>
<text text-anchor="start" x="85" y="-346" font-family="Arial" font-size="10.00">datos JSONB</text>
</g>
</g>
</svg>
