<svg width="40" height="40" viewBox="0 0 40 40" fill="none" xmlns="http://www.w3.org/2000/svg">
  <!-- Silueta de vaca simplificada -->
  <circle cx="20" cy="20" r="18" fill="#2D6A2D" opacity="0.1"/>
  <path d="M12 18C12 18 10 16 9 16C8 16 7 17 7 18C7 19 8 20 9 20C10 20 12 18 12 18Z" fill="#2D6A2D"/>
  <path d="M28 18C28 18 30 16 31 16C32 16 33 17 33 18C33 19 32 20 31 20C30 20 28 18 28 18Z" fill="#2D6A2D"/>
  <ellipse cx="20" cy="22" rx="12" ry="9" fill="#2D6A2D"/>
  <ellipse cx="20" cy="15" rx="8" ry="7" fill="#2D6A2D"/>
  <circle cx="17" cy="15" r="1.5" fill="white"/>
  <circle cx="23" cy="15" r="1.5" fill="white"/>
  <rect x="16" y="28" width="2" height="7" rx="1" fill="#2D6A2D"/>
  <rect x="22" y="28" width="2" height="7" rx="1" fill="#2D6A2D"/>
  <path d="M18 19C18 19 19 20 20 20C21 20 22 19 22 19" stroke="white" stroke-width="1" stroke-linecap="round"/>
</svg>
